<svg xmlns="http://www.w3.org/2000/svg" xmlns:svg="http://www.w3.org/2000/svg" xmlns:xlink="http://www.w3.org/1999/xlink" id="svg2" width="160" height="160" version="1.1"><metadata id="metadata7"/><g id="layer1" transform="translate(0,-892.36218)"><image id="image4177" width="960" height="640" x="-175.752" y="-731.513" xlink:href="file:///Users/mattias/Desktop/Slippy/Slippyl1.png"/><path style="fill:#b4b4b4;fill-opacity:1;stroke:none" id="rect3002-0-9" d="m 64.502288,897.10141 c -6.061478,0 -10.982979,4.79589 -10.931684,10.73462 l 0,41.07379 -41.547454,0 c -6.0614864,0 -10.9316922,4.77177 -10.9316922,10.7107 l 0,30.62605 c 0,5.93894 4.8702058,10.71073 10.9316922,10.71073 l 41.547454,0 0,39.9978 c 0,5.9391 4.870206,10.7348 10.931684,10.7348 l 31.257798,0 c 6.061494,0 10.931694,-4.7957 10.931694,-10.7348 l 0,-39.9978 41.19663,0 c 6.06148,0 10.95609,-4.77179 10.95609,-10.71073 l 0,-30.62605 c 0,-5.93893 -4.89461,-10.7107 -10.95609,-10.7107 l -41.19663,0 0,-41.07379 c 0,-5.93895 -4.8702,-10.73462 -10.931694,-10.73462 z"/><path style="fill:#ececec;fill-opacity:1;stroke:none" id="rect3002-1" d="m 64.721094,893.13621 c -6.061478,0 -10.982986,4.79589 -10.931691,10.73463 l 0,41.07378 -41.547455,0 c -6.0614767,0 -10.9316832,4.77176 -10.9316832,10.7107 l 0,30.62605 c 0,5.93896 4.8702065,10.71073 10.9316832,10.71073 l 41.547455,0 0,39.9979 c 0,5.939 4.870213,10.7347 10.931691,10.7347 l 31.257797,0 c 6.061499,0 10.879019,-4.7959 10.931699,-10.7347 l 0,-39.9979 41.19662,0 c 6.06148,0 10.95609,-4.77177 10.95609,-10.71073 l 0,-30.62605 c 0,-5.93894 -4.89461,-10.7107 -10.95609,-10.7107 l -41.19662,0 0,-41.07378 c 0,-5.93896 -4.8702,-10.73463 -10.931699,-10.73463 z"/><path id="path3821-5-90" d="m 81.130143,902.21828 15.69264,31.06305 -35.868907,0 z" style="fill:#8c8c8c;fill-opacity:1;stroke:none"/><path style="fill:#b4b4b4;fill-opacity:1;stroke:none" id="rect3807-6-1" d="m 81.298681,905.00959 14.297323,28.30109 -32.679619,0 z"/><path id="path3821-5-9-6" d="m 10.306338,967.6789 31.703862,-15.3755 0,35.14396 z" style="fill:#8c8c8c;fill-opacity:1;stroke:none"/><path style="fill:#b4b4b4;fill-opacity:1;stroke:none" id="rect3807-6-6-9" d="m 12.412406,968.83352 29.283014,-14.20134 0,32.46033 z"/><path id="path3821-5-9-9-9" d="m 150.27722,967.41972 -31.91973,-15.4802 0,35.38325 z" style="fill:#8c8c8c;fill-opacity:1;stroke:none"/><path style="fill:#b3b3b5;fill-opacity:1;stroke:none" id="rect3807-6-6-0-5" d="m 148.51401,968.52268 -30.09607,-14.5957 0,33.36161 z"/><path id="path3821-5-5-5" d="m 81.080556,1040.8241 15.692639,-31.063 -35.868907,0 z" style="fill:#8c8c8c;fill-opacity:1;stroke:none"/><path style="fill:#b4b4b4;fill-opacity:1;stroke:none" id="rect3807-6-0-7" d="m 81.073658,1040.7047 14.749614,-29.1964 -33.713426,0 z"/></g></svg>